<svg width="20" height="20" viewBox="0 0 20 20" fill="none" xmlns="http://www.w3.org/2000/svg">
<g id="calendar">
<path id="Vector" d="M6.66667 1.66675V4.16675M13.3333 1.66675V4.16675M17.2917 14.6667H2.70833M13.3333 2.91675C16.1083 3.06675 17.5 4.12508 17.5 8.04175V13.1917C17.5 16.6251 16.6667 18.3417 12.5 18.3417H7.5C3.33333 18.3417 2.5 16.6251 2.5 13.1917V8.04175C2.5 4.12508 3.89167 3.07508 6.66667 2.91675H13.3333Z" stroke="#0F1324" stroke-opacity="0.6" stroke-width="1.5" stroke-miterlimit="10" stroke-linecap="round" stroke-linejoin="round"/>
<path id="Vector_2" d="M9.99996 6.875C8.97496 6.875 8.10829 7.43333 8.10829 8.51667C8.10829 9.03333 8.34996 9.425 8.71663 9.675C8.20829 9.975 7.91663 10.4583 7.91663 11.025C7.91663 12.0583 8.70829 12.7 9.99996 12.7C11.2833 12.7 12.0833 12.0583 12.0833 11.025C12.0833 10.4583 11.7916 9.96667 11.275 9.675C11.65 9.41667 11.8833 9.03333 11.8833 8.51667C11.8833 7.43333 11.025 6.875 9.99996 6.875ZM9.99996 9.24167C9.56663 9.24167 9.24996 8.98333 9.24996 8.575C9.24996 8.15833 9.56663 7.91667 9.99996 7.91667C10.4333 7.91667 10.75 8.15833 10.75 8.575C10.75 8.98333 10.4333 9.24167 9.99996 9.24167ZM9.99996 11.6667C9.44996 11.6667 9.04996 11.3917 9.04996 10.8917C9.04996 10.3917 9.44996 10.125 9.99996 10.125C10.55 10.125 10.95 10.4 10.95 10.8917C10.95 11.3917 10.55 11.6667 9.99996 11.6667Z" fill="#0F1324" fill-opacity="0.6"/>
</g>
</svg>
