<svg width="32" height="32" viewBox="0 0 32 32" fill="none" xmlns="http://www.w3.org/2000/svg">
<g id="call">
<g id="Vector">
<path d="M14.7327 19.9333L12.266 22.4C11.746 22.92 10.9193 22.92 10.386 22.4133C10.2393 22.2667 10.0927 22.1333 9.94602 21.9867C8.57268 20.6 7.33268 19.1467 6.22602 17.6267C5.13268 16.1067 4.25268 14.5867 3.61268 13.08C2.98602 11.56 2.66602 10.1067 2.66602 8.71999C2.66602 7.81332 2.82602 6.94666 3.14602 6.14666C3.46602 5.33332 3.97268 4.58666 4.67935 3.91999C5.53268 3.07999 6.46602 2.66666 7.45268 2.66666C7.82602 2.66666 8.19935 2.74666 8.53268 2.90666C8.87935 3.06666 9.18602 3.30666 9.42602 3.65332L12.5194 8.01332C12.7593 8.34666 12.9327 8.65332 13.0527 8.94666C13.1727 9.22666 13.2393 9.50666 13.2393 9.75999C13.2393 10.08 13.146 10.4 12.9593 10.7067C12.786 11.0133 12.5327 11.3333 12.2127 11.6533L11.1993 12.7067C11.0527 12.8533 10.986 13.0267 10.986 13.24C10.986 13.3467 10.9993 13.44 11.026 13.5467C11.066 13.6533 11.106 13.7333 11.1327 13.8133C11.3727 14.2533 11.786 14.8267 12.3727 15.52C12.9727 16.2133 13.6127 16.92 14.306 17.6267C14.4393 17.76 14.586 17.8933 14.7193 18.0267C15.2527 18.5467 15.266 19.4 14.7327 19.9333Z" fill="#F58634"/>
<path d="M29.2927 24.44C29.2927 24.8133 29.226 25.2 29.0927 25.5733C29.0527 25.68 29.0127 25.7867 28.9593 25.8933C28.7327 26.3733 28.4394 26.8267 28.0527 27.2533C27.3994 27.9733 26.6793 28.4933 25.866 28.8267C25.8527 28.8267 25.8394 28.84 25.826 28.84C25.0394 29.16 24.186 29.3333 23.266 29.3333C21.906 29.3333 20.4527 29.0133 18.9193 28.36C17.386 27.7067 15.8527 26.8267 14.3327 25.72C13.8127 25.3333 13.2927 24.9467 12.7993 24.5333L17.1593 20.1733C17.5327 20.4533 17.866 20.6667 18.146 20.8133C18.2127 20.84 18.2927 20.88 18.386 20.92C18.4927 20.96 18.5993 20.9733 18.7193 20.9733C18.946 20.9733 19.1193 20.8933 19.266 20.7467L20.2794 19.7467C20.6127 19.4133 20.9327 19.16 21.2393 19C21.546 18.8133 21.8527 18.72 22.186 18.72C22.4393 18.72 22.706 18.7733 22.9993 18.8933C23.2927 19.0133 23.5993 19.1867 23.9327 19.4133L28.346 22.5467C28.6927 22.7867 28.9327 23.0667 29.0793 23.4C29.2127 23.7333 29.2927 24.0667 29.2927 24.44Z" fill="#F58634"/>
</g>
</g>
</svg>
