<svg width="17" height="16" viewBox="0 0 17 16" fill="none" xmlns="http://www.w3.org/2000/svg">
<g id="call">
<path id="Vector" d="M2.38686 3.25901L2.38686 3.25901L2.3879 3.25638C2.51932 2.92234 2.72922 2.60969 3.03239 2.32368L3.03247 2.32376L3.04004 2.31631C3.39124 1.9706 3.7372 1.83331 4.07595 1.83331C4.1926 1.83331 4.30471 1.85853 4.39958 1.90407L4.39956 1.90413L4.40642 1.90729C4.50548 1.95301 4.58649 2.01732 4.65152 2.11125L4.65149 2.11127L4.65483 2.11597L6.20149 4.29597L6.20148 4.29597L6.20352 4.2988C6.3054 4.44031 6.37092 4.55934 6.41318 4.66263L6.41311 4.66266L6.41638 4.67027C6.45689 4.76479 6.46928 4.83715 6.46928 4.87998C6.46928 4.93933 6.45271 5.01033 6.40218 5.09334L6.39798 5.10025L6.394 5.10728C6.33526 5.21121 6.23974 5.33575 6.1024 5.47309L6.10233 5.47303L6.09562 5.48L5.59166 6.00386C5.41968 6.17799 5.34262 6.39384 5.34262 6.61998C5.34262 6.72068 5.356 6.80842 5.37755 6.89458L5.38445 6.92221L5.39445 6.94888C5.40752 6.98371 5.42064 7.01465 5.42894 7.03424C5.42978 7.03621 5.43057 7.03806 5.4313 7.0398C5.43996 7.06027 5.44166 7.06495 5.44167 7.06495L5.45569 7.10699L5.477 7.14607C5.62063 7.40939 5.85208 7.72583 6.15426 8.08295L6.15423 8.08297L6.15787 8.08717C6.46295 8.43971 6.7901 8.80104 7.14571 9.16348L7.1457 9.1635L7.14906 9.16687C7.18674 9.20455 7.22548 9.24144 7.25922 9.27357L7.26112 9.27538C7.29694 9.3095 7.32745 9.33859 7.35573 9.36687L7.3557 9.36689L7.36023 9.37131C7.42968 9.43902 7.42982 9.54567 7.3624 9.61309L6.12906 10.8464C6.06685 10.9086 5.9653 10.9156 5.89016 10.8471C5.85146 10.8086 5.81347 10.7723 5.77961 10.74L5.77786 10.7383C5.74086 10.703 5.70859 10.6722 5.67694 10.6405C5.00807 9.96507 4.40514 9.25826 3.86766 8.52016C3.3396 7.78587 2.92001 7.05924 2.61719 6.34695C2.32431 5.63581 2.18262 4.97492 2.18262 4.35998C2.18262 3.9659 2.25204 3.59604 2.38686 3.25901ZM14.3821 12.723L14.382 12.723L14.3772 12.7331C14.2837 12.931 14.164 13.1159 14.0057 13.2907C13.7423 13.5809 13.4638 13.7859 13.1601 13.9219L13.0742 13.9568C12.7409 14.0924 12.3782 14.1666 11.9826 14.1666C11.3817 14.1666 10.7217 14.0253 10.0053 13.72C9.27759 13.4099 8.54431 12.99 7.81224 12.4572C7.70579 12.3781 7.60161 12.3006 7.49975 12.2233L8.98905 10.734C9.05882 10.7772 9.12615 10.8158 9.19061 10.8496L9.21322 10.8614L9.23692 10.8709C9.24034 10.8723 9.24768 10.8754 9.26929 10.8853L9.27452 10.8877C9.29262 10.896 9.31816 10.9078 9.34565 10.9196L9.35626 10.9241L9.36706 10.9281C9.49346 10.9755 9.61055 10.9866 9.70928 10.9866C9.96159 10.9866 10.173 10.8894 10.3348 10.7283C10.3352 10.7278 10.3357 10.7273 10.3362 10.7269L10.8405 10.2292L10.8405 10.2292L10.8428 10.2269C10.9893 10.0804 11.1085 9.99129 11.2006 9.94327L11.2152 9.93565L11.2293 9.92708C11.3141 9.87546 11.3785 9.85998 11.4426 9.85998C11.496 9.85998 11.5651 9.87063 11.66 9.90942C11.7637 9.95185 11.8845 10.0182 12.0307 10.1174L14.2332 11.681L14.2331 11.681L14.238 11.6844C14.3435 11.7574 14.3973 11.8267 14.4285 11.8945C14.4745 12.0117 14.496 12.1126 14.496 12.22C14.496 12.3468 14.4734 12.482 14.4263 12.615C14.406 12.6691 14.3949 12.6974 14.3821 12.723ZM13.049 13.9694C13.0487 13.9696 13.0488 13.9695 13.0491 13.9694L13.049 13.9694Z" fill="#161616" stroke="#161616"/>
</g>
</svg>
