<svg width="17" height="16" viewBox="0 0 17 16" fill="none" xmlns="http://www.w3.org/2000/svg">
<g id="call">
<path id="Vector" d="M2.38765 3.25901L2.38766 3.25901L2.38869 3.25638C2.52012 2.92234 2.73002 2.60969 3.03319 2.32368L3.03326 2.32376L3.04084 2.31631C3.39203 1.9706 3.73799 1.83331 4.07674 1.83331C4.1934 1.83331 4.3055 1.85853 4.40038 1.90407L4.40035 1.90413L4.40721 1.90729C4.50627 1.95301 4.58729 2.01732 4.65231 2.11125L4.65229 2.11127L4.65562 2.11597L6.20229 4.29597L6.20228 4.29597L6.20431 4.2988C6.3062 4.44031 6.37172 4.55934 6.41397 4.66263L6.41391 4.66266L6.41717 4.67027C6.45768 4.76479 6.47008 4.83715 6.47008 4.87998C6.47008 4.93933 6.4535 5.01033 6.40298 5.09334L6.39877 5.10025L6.3948 5.10728C6.33605 5.21121 6.24054 5.33575 6.10319 5.47309L6.10312 5.47303L6.09642 5.48L5.59245 6.00386C5.42047 6.17799 5.34341 6.39384 5.34341 6.61998C5.34341 6.72068 5.3568 6.80842 5.37834 6.89458L5.38525 6.92221L5.39525 6.94888C5.40831 6.98371 5.42143 7.01465 5.42974 7.03424C5.43057 7.03621 5.43136 7.03806 5.43209 7.0398C5.44076 7.06027 5.44246 7.06495 5.44247 7.06495L5.45648 7.10699L5.4778 7.14607C5.62142 7.40939 5.85287 7.72583 6.15505 8.08295L6.15503 8.08297L6.15866 8.08717C6.46375 8.43971 6.7909 8.80104 7.14651 9.16348L7.14649 9.1635L7.14986 9.16687C7.18754 9.20455 7.22627 9.24144 7.26001 9.27357L7.26192 9.27538C7.29774 9.3095 7.32825 9.33859 7.35652 9.36687L7.3565 9.36689L7.36103 9.37131C7.43047 9.43902 7.43061 9.54567 7.36319 9.61309L6.12986 10.8464C6.06764 10.9086 5.96609 10.9156 5.89095 10.8471C5.85226 10.8086 5.81426 10.7723 5.78041 10.74L5.77865 10.7383C5.74165 10.703 5.70938 10.6722 5.67774 10.6405C5.00886 9.96507 4.40593 9.25826 3.86845 8.52016C3.34039 7.78587 2.92081 7.05924 2.61799 6.34695C2.3251 5.63581 2.18341 4.97492 2.18341 4.35998C2.18341 3.9659 2.25284 3.59604 2.38765 3.25901ZM14.3829 12.723L14.3828 12.723L14.378 12.7331C14.2845 12.931 14.1648 13.1159 14.0065 13.2907C13.7431 13.5809 13.4646 13.7859 13.1609 13.9219L13.075 13.9568C12.7417 14.0924 12.379 14.1666 11.9834 14.1666C11.3825 14.1666 10.7225 14.0253 10.0061 13.72C9.27838 13.4099 8.5451 12.99 7.81304 12.4572C7.70658 12.3781 7.6024 12.3006 7.50055 12.2233L8.98985 10.734C9.05962 10.7772 9.12694 10.8158 9.19141 10.8496L9.21402 10.8614L9.23772 10.8709C9.24113 10.8723 9.24847 10.8754 9.27008 10.8853L9.27531 10.8877C9.29341 10.896 9.31895 10.9078 9.34645 10.9196L9.35705 10.9241L9.36785 10.9281C9.49425 10.9755 9.61135 10.9866 9.71008 10.9866C9.96239 10.9866 10.1738 10.8894 10.3356 10.7283C10.336 10.7278 10.3365 10.7273 10.337 10.7269L10.8413 10.2292L10.8413 10.2292L10.8436 10.2269C10.9901 10.0804 11.1093 9.99129 11.2014 9.94327L11.216 9.93565L11.2301 9.92708C11.3149 9.87546 11.3793 9.85998 11.4434 9.85998C11.4968 9.85998 11.5659 9.87063 11.6608 9.90942C11.7645 9.95185 11.8853 10.0182 12.0315 10.1174L14.234 11.681L14.2339 11.681L14.2388 11.6844C14.3443 11.7574 14.398 11.8267 14.4293 11.8945C14.4753 12.0117 14.4967 12.1126 14.4967 12.22C14.4967 12.3468 14.4742 12.482 14.4271 12.615C14.4068 12.6691 14.3957 12.6974 14.3829 12.723ZM13.0498 13.9694C13.0495 13.9696 13.0496 13.9695 13.0499 13.9694L13.0498 13.9694Z" fill="white" stroke="white"/>
</g>
</svg>
