<svg width="20" height="20" viewBox="0 0 20 20" fill="none" xmlns="http://www.w3.org/2000/svg">
<g id="edit-2">
<g id="Vector">
<path d="M17.5 18.3333H2.5C2.15833 18.3333 1.875 18.05 1.875 17.7083C1.875 17.3667 2.15833 17.0833 2.5 17.0833H17.5C17.8417 17.0833 18.125 17.3667 18.125 17.7083C18.125 18.05 17.8417 18.3333 17.5 18.3333Z" fill="#161616"/>
<path d="M15.85 2.89999C14.2333 1.28332 12.65 1.24166 10.9917 2.89999L9.98333 3.90832C9.9 3.99166 9.86667 4.12499 9.9 4.24166C10.5333 6.44999 12.3 8.21665 14.5083 8.84999C14.5417 8.85832 14.575 8.86666 14.6083 8.86666C14.7 8.86666 14.7833 8.83332 14.85 8.76666L15.85 7.75832C16.675 6.94166 17.075 6.14999 17.075 5.34999C17.0833 4.52499 16.6833 3.72499 15.85 2.89999Z" fill="#161616"/>
<path d="M13.0083 9.60832C12.7667 9.49165 12.5333 9.37499 12.3083 9.24166C12.125 9.13332 11.95 9.01666 11.775 8.89166C11.6333 8.79999 11.4667 8.66666 11.3083 8.53332C11.2917 8.52499 11.2333 8.47499 11.1667 8.40832C10.8917 8.17499 10.5833 7.87499 10.3083 7.54166C10.2833 7.52499 10.2417 7.46666 10.1833 7.39165C10.1 7.29166 9.95833 7.12499 9.83333 6.93332C9.73333 6.80832 9.61667 6.62499 9.50833 6.44166C9.375 6.21666 9.25833 5.99166 9.14167 5.75832C9.12401 5.72049 9.10693 5.68285 9.09037 5.64544C8.96739 5.36767 8.60519 5.28647 8.39039 5.50126L3.61667 10.275C3.50833 10.3833 3.40833 10.5917 3.38333 10.7333L2.93333 13.925C2.85 14.4917 3.00833 15.025 3.35833 15.3833C3.65833 15.675 4.075 15.8333 4.525 15.8333C4.625 15.8333 4.725 15.825 4.825 15.8083L8.025 15.3583C8.175 15.3333 8.38333 15.2333 8.48333 15.125L13.2511 10.3572C13.4674 10.1409 13.3858 9.76972 13.1045 9.64966C13.0728 9.63615 13.0408 9.62238 13.0083 9.60832Z" fill="#161616"/>
</g>
</g>
</svg>
