<svg width="32" height="32" viewBox="0 0 32 32" fill="none" xmlns="http://www.w3.org/2000/svg">
<g id="facebook">
<path id="Vector" d="M29.3327 21.5867C29.3327 26.44 26.4394 29.3333 21.586 29.3333H19.9993C19.266 29.3333 18.666 28.7333 18.666 28V20.3067C18.666 19.9467 18.9593 19.64 19.3193 19.64L21.666 19.6C21.8527 19.5867 22.0127 19.4534 22.0527 19.2667L22.5194 16.72C22.5594 16.48 22.3727 16.2533 22.1193 16.2533L19.2793 16.2933C18.906 16.2933 18.6127 16 18.5994 15.64L18.546 12.3733C18.546 12.16 18.7193 11.9734 18.946 11.9734L22.146 11.92C22.3727 11.92 22.546 11.7467 22.546 11.52L22.4927 8.31999C22.4927 8.09333 22.3194 7.92001 22.0927 7.92001L18.4927 7.97335C16.2793 8.01335 14.5194 9.82667 14.5594 12.04L14.626 15.7067C14.6394 16.08 14.346 16.3734 13.9727 16.3867L12.3727 16.4133C12.146 16.4133 11.9727 16.5867 11.9727 16.8133L12.0127 19.3467C12.0127 19.5734 12.186 19.7467 12.4127 19.7467L14.0127 19.72C14.386 19.72 14.6793 20.0133 14.6927 20.3733L14.8127 27.9734C14.826 28.72 14.226 29.3333 13.4793 29.3333H10.4127C5.55935 29.3333 2.66602 26.44 2.66602 21.5733V10.4133C2.66602 5.56 5.55935 2.66667 10.4127 2.66667H21.586C26.4394 2.66667 29.3327 5.56 29.3327 10.4133V21.5867Z" fill="#F58634"/>
</g>
</svg>
