<svg width="20" height="20" viewBox="0 0 20 20" fill="none" xmlns="http://www.w3.org/2000/svg">
<g id="gallery" opacity="0.6">
<path id="Vector" d="M2.22501 15.7917L6.33334 13.0334C6.99167 12.5917 7.94167 12.6417 8.53334 13.1501L8.80834 13.3917C9.45834 13.9501 10.5083 13.9501 11.1583 13.3917L14.625 10.4167C15.275 9.85842 16.325 9.85842 16.975 10.4167L18.3333 11.5834M7.50001 18.3334H12.5C16.6667 18.3334 18.3333 16.6667 18.3333 12.5001V7.50008C18.3333 3.33341 16.6667 1.66675 12.5 1.66675H7.50001C3.33334 1.66675 1.66667 3.33341 1.66667 7.50008V12.5001C1.66667 16.6667 3.33334 18.3334 7.50001 18.3334ZM9.16667 6.66675C9.16667 7.58722 8.42048 8.33342 7.50001 8.33342C6.57953 8.33342 5.83334 7.58722 5.83334 6.66675C5.83334 5.74627 6.57953 5.00008 7.50001 5.00008C8.42048 5.00008 9.16667 5.74627 9.16667 6.66675Z" stroke="#161616" stroke-width="1.5" stroke-linecap="round" stroke-linejoin="round"/>
</g>
</svg>
