<svg width="17" height="16" viewBox="0 0 17 16" fill="none" xmlns="http://www.w3.org/2000/svg">
<g id="global">
<path id="Vector" d="M5.68262 1.99998H6.34928C5.04928 5.89331 5.04928 10.1066 6.34928 14H5.68262M10.3493 1.99998C11.6493 5.89331 11.6493 10.1066 10.3493 14M2.34928 10.6666V9.99998C6.24262 11.3 10.456 11.3 14.3493 9.99998V10.6666M2.34928 5.99998C6.24262 4.69998 10.456 4.69998 14.3493 5.99998M15.016 7.99998C15.016 11.6819 12.0312 14.6666 8.34928 14.6666C4.66739 14.6666 1.68262 11.6819 1.68262 7.99998C1.68262 4.31808 4.66739 1.33331 8.34928 1.33331C12.0312 1.33331 15.016 4.31808 15.016 7.99998Z" stroke="#161616" stroke-width="1.5" stroke-linecap="round" stroke-linejoin="round"/>
</g>
</svg>
