<svg width="17" height="16" viewBox="0 0 17 16" fill="none" xmlns="http://www.w3.org/2000/svg">
<g id="global">
<path id="Vector" d="M5.68341 1.99998H6.35008C5.05008 5.89331 5.05008 10.1066 6.35008 14H5.68341M10.3501 1.99998C11.6501 5.89331 11.6501 10.1066 10.3501 14M2.35008 10.6666V9.99998C6.24341 11.3 10.4567 11.3 14.3501 9.99998V10.6666M2.35008 5.99998C6.24341 4.69998 10.4567 4.69998 14.3501 5.99998M15.0167 7.99998C15.0167 11.6819 12.032 14.6666 8.35008 14.6666C4.66818 14.6666 1.68341 11.6819 1.68341 7.99998C1.68341 4.31808 4.66818 1.33331 8.35008 1.33331C12.032 1.33331 15.0167 4.31808 15.0167 7.99998Z" stroke="white" stroke-width="1.5" stroke-linecap="round" stroke-linejoin="round"/>
</g>
</svg>
