<svg width="32" height="32" viewBox="0 0 32 32" fill="none" xmlns="http://www.w3.org/2000/svg">
<g id="instagram">
<path id="Vector" d="M21.586 2.66667H10.4127C5.55935 2.66667 2.66602 5.56 2.66602 10.4133V21.5733C2.66602 26.44 5.55935 29.3333 10.4127 29.3333H21.5727C26.426 29.3333 29.3193 26.44 29.3193 21.5867V10.4133C29.3327 5.56 26.4394 2.66667 21.586 2.66667ZM15.9993 21.1733C13.146 21.1733 10.826 18.8533 10.826 16C10.826 13.1467 13.146 10.8267 15.9993 10.8267C18.8527 10.8267 21.1727 13.1467 21.1727 16C21.1727 18.8533 18.8527 21.1733 15.9993 21.1733ZM23.8927 9.17334C23.826 9.33333 23.7327 9.48 23.6127 9.61333C23.4793 9.73334 23.3327 9.82667 23.1727 9.89333C23.0127 9.96 22.8393 10 22.666 10C22.306 10 21.9727 9.86667 21.7194 9.61333C21.5993 9.48 21.506 9.33333 21.4394 9.17334C21.3727 9.01333 21.3327 8.84 21.3327 8.66667C21.3327 8.49333 21.3727 8.32 21.4394 8.16C21.506 7.98667 21.5993 7.85333 21.7194 7.72C22.026 7.41333 22.4927 7.26667 22.9193 7.36C23.0127 7.37333 23.0927 7.4 23.1727 7.44C23.2527 7.46667 23.3327 7.50667 23.4127 7.56C23.4793 7.6 23.546 7.66667 23.6127 7.72C23.7327 7.85333 23.826 7.98667 23.8927 8.16C23.9594 8.32 23.9993 8.49333 23.9993 8.66667C23.9993 8.84 23.9594 9.01333 23.8927 9.17334Z" fill="#F58634"/>
</g>
</svg>
