<svg width="16.000000" height="16.000000" viewBox="0 0 16 16" fill="none" xmlns="http://www.w3.org/2000/svg" xmlns:xlink="http://www.w3.org/1999/xlink">
	<desc>
			Created with Pixso.
	</desc>
	<defs>
		<clipPath id="clip811_49073">
			<rect id="plus" width="16.000000" height="16.000000" fill="white" fill-opacity="0"/>
		</clipPath>
	</defs>
	<rect id="plus" width="16.000000" height="16.000000" fill="#FFFFFF" fill-opacity="0"/>
	<g clip-path="url(#clip811_49073)">
		<path id="Icon" d="M7.27 3.35L7.25 3.33C7.25 2.91 7.57 2.58 8 2.58C8.41 2.58 8.75 2.91 8.75 3.33L8.72 3.35L7.27 3.35ZM8.72 12.64L8.75 12.66C8.75 13.08 8.41 13.41 8 13.41C7.57 13.41 7.25 13.08 7.25 12.66L7.27 12.64L8.72 12.64ZM3.35 8.73L3.33 8.75C2.91 8.75 2.58 8.42 2.58 8C2.58 7.58 2.91 7.25 3.33 7.25L3.35 7.27L3.35 8.73ZM12.64 7.27L12.66 7.25C13.08 7.25 13.41 7.58 13.41 8C13.41 8.42 13.08 8.75 12.66 8.75L12.64 8.73L12.64 7.27Z" fill="#F58634" fill-opacity="1.000000" fill-rule="nonzero"/>
		<path id="Icon" d="M8 3.33L8 12.66M3.33 8L12.66 8" stroke="#F58634" stroke-opacity="1.000000" stroke-width="1.500000" stroke-linejoin="round"/>
	</g>
</svg>
