<svg width="24" height="24" viewBox="0 0 24 24" fill="none" xmlns="http://www.w3.org/2000/svg">
<g id="material-symbols:prompt-suggestion">
<path id="Vector" d="M15 19L13.6 17.575L17.175 14H7.5C6.25 14 5.18767 13.5627 4.313 12.688C3.43833 11.8133 3.00067 10.7507 3 9.5C3 8.25 3.43767 7.18767 4.313 6.313C5.18833 5.43833 6.25067 5.00067 7.5 5H8V7H7.5C6.8 7 6.20833 7.24167 5.725 7.725C5.24167 8.20833 5 8.8 5 9.5C5 10.2 5.24167 10.7917 5.725 11.275C6.20833 11.7583 6.8 12 7.5 12H17.175L13.6 8.4L15 7L21 13L15 19Z" fill="#161616"/>
</g>
</svg>
