<svg width="20" height="20" viewBox="0 0 20 20" fill="none" xmlns="http://www.w3.org/2000/svg">
<g id="notification">
<path id="Vector" d="M4.54174 11.55L5.18427 11.9369L5.18595 11.9341L4.54174 11.55ZM3.58341 13.1417L2.94088 12.7548L2.94077 12.755L3.58341 13.1417ZM4.48341 15.5833L4.24296 16.2938L4.24574 16.2947L4.48341 15.5833ZM15.5417 15.5833L15.3063 14.8712L15.3041 14.872L15.5417 15.5833ZM16.4417 13.1417L17.0849 12.7558L17.0843 12.7548L16.4417 13.1417ZM15.4834 11.55L14.8337 11.9249L14.8409 11.9369L15.4834 11.55ZM11.5583 2.6667L11.3492 3.38696C11.6236 3.46664 11.9195 3.38342 12.1122 3.17237C12.3048 2.96132 12.3608 2.65912 12.2566 2.39304L11.5583 2.6667ZM10.7583 2.50003L10.6652 3.24425L10.668 3.24458L10.7583 2.50003ZM8.47493 2.6667L7.77664 2.39304C7.67235 2.65916 7.72839 2.96142 7.92113 3.17247C8.11388 3.38352 8.40983 3.46667 8.68429 3.38689L8.47493 2.6667ZM10.0167 1.67501C6.84419 1.67501 4.26674 4.25246 4.26674 7.42501H5.76674C5.76674 5.08089 7.67262 3.17501 10.0167 3.17501V1.67501ZM4.26674 7.42501V9.83334H5.76674V7.42501H4.26674ZM4.26674 9.83334C4.26674 9.99714 4.229 10.247 4.15344 10.5192C4.07795 10.7911 3.98141 11.0253 3.89753 11.166L5.18595 11.9341C5.36041 11.6414 5.50136 11.2714 5.59879 10.9204C5.69615 10.5697 5.76674 10.1779 5.76674 9.83334H4.26674ZM3.89921 11.1631L2.94088 12.7548L4.22593 13.5285L5.18427 11.9369L3.89921 11.1631ZM2.94077 12.755C2.5389 13.4229 2.45186 14.1788 2.70195 14.8542C2.95171 15.5287 3.50888 16.0453 4.24296 16.2938L4.72385 14.8729C4.3746 14.7547 4.18594 14.5421 4.10861 14.3333C4.03162 14.1254 4.03625 13.8438 4.22605 13.5283L2.94077 12.755ZM4.24574 16.2947C7.99166 17.5462 12.0335 17.5462 15.7794 16.2947L15.3041 14.872C11.8667 16.0205 8.15849 16.0205 4.72107 14.872L4.24574 16.2947ZM15.7771 16.2954C17.2445 15.8104 17.8806 14.0821 17.0849 12.7558L15.7986 13.5275C16.1029 14.0346 15.8556 14.6897 15.3063 14.8712L15.7771 16.2954ZM17.0843 12.7548L16.1259 11.1631L14.8409 11.9369L15.7992 13.5285L17.0843 12.7548ZM16.133 11.1752C16.0501 11.0315 15.9545 10.7944 15.8796 10.5214C15.8045 10.2477 15.7667 9.99737 15.7667 9.83334H14.2667C14.2667 10.1776 14.3373 10.569 14.433 10.9182C14.529 11.2682 14.6667 11.6352 14.8338 11.9248L16.133 11.1752ZM15.7667 9.83334V7.42501H14.2667V9.83334H15.7667ZM15.7667 7.42501C15.7667 4.26079 13.181 1.67501 10.0167 1.67501V3.17501C12.3525 3.17501 14.2667 5.08922 14.2667 7.42501H15.7667ZM11.7674 1.94644C11.4764 1.86198 11.1698 1.79442 10.8485 1.75548L10.668 3.24458C10.8968 3.27231 11.1234 3.32142 11.3492 3.38696L11.7674 1.94644ZM10.8513 1.75582C9.9557 1.64388 9.0858 1.70807 8.26558 1.94651L8.68429 3.38689C9.2974 3.20866 9.96083 3.15619 10.6652 3.24424L10.8513 1.75582ZM9.17323 2.94035C9.30545 2.60297 9.63374 2.3667 10.0166 2.3667V0.866699C8.99946 0.866699 8.12776 1.4971 7.77664 2.39304L9.17323 2.94035ZM10.0166 2.3667C10.3995 2.3667 10.7278 2.60297 10.86 2.94035L12.2566 2.39304C11.9054 1.4971 11.0337 0.866699 10.0166 0.866699V2.3667ZM11.7667 15.8835C11.7667 16.8443 10.9775 17.6335 10.0167 17.6335V19.1335C11.8059 19.1335 13.2667 17.6727 13.2667 15.8835H11.7667ZM10.0167 17.6335C9.54083 17.6335 9.09587 17.4353 8.78035 17.1198L7.71969 18.1805C8.30416 18.7649 9.12587 19.1335 10.0167 19.1335V17.6335ZM8.78035 17.1198C8.46482 16.8043 8.26668 16.3593 8.26668 15.8835H6.76668C6.76668 16.7743 7.13521 17.596 7.71969 18.1805L8.78035 17.1198Z" fill="#18181B"/>
</g>
</svg>
