<svg width="20" height="20" viewBox="0 0 20 20" fill="none" xmlns="http://www.w3.org/2000/svg">
<g id="profile-2user">
<path id="Vector" d="M13.6751 3.33329C15.2917 3.33329 16.5917 4.64163 16.5917 6.24996C16.5917 7.82496 15.3417 9.10829 13.7834 9.16663C13.7167 9.15829 13.6417 9.15829 13.5667 9.16663M15.2834 16.6666C15.8834 16.5416 16.4501 16.3 16.9167 15.9416C18.2167 14.9666 18.2167 13.3583 16.9167 12.3833C16.4584 12.0333 15.9001 11.8 15.3084 11.6666M7.63339 9.05829C7.55006 9.04996 7.45006 9.04996 7.35839 9.05829C5.37506 8.99163 3.80006 7.36663 3.80006 5.36663C3.80006 3.32496 5.45006 1.66663 7.50006 1.66663C9.54172 1.66663 11.2001 3.32496 11.2001 5.36663C11.1917 7.36663 9.61672 8.99163 7.63339 9.05829ZM3.46672 12.1333C1.45006 13.4833 1.45006 15.6833 3.46672 17.025C5.75839 18.5583 9.51672 18.5583 11.8084 17.025C13.8251 15.675 13.8251 13.475 11.8084 12.1333C9.52506 10.6083 5.76672 10.6083 3.46672 12.1333Z" stroke="#18181B" stroke-opacity="0.6" stroke-width="1.5" stroke-linecap="round" stroke-linejoin="round"/>
</g>
</svg>
