<svg width="24.000000" height="24.000000" viewBox="0 0 24 24" fill="none" xmlns="http://www.w3.org/2000/svg" xmlns:xlink="http://www.w3.org/1999/xlink">
	<defs/>
	<rect id="trash" width="24.000000" height="24.000000" fill="#FFFFFF" fill-opacity="0"/>
	<path id="Vector" d="M21 5.97C17.66 5.64 14.31 5.47 10.98 5.47C9 5.47 7.02 5.58 5.04 5.78L3 5.97M8.5 4.96L8.72 3.65C8.87 2.7 9 2 10.68 2L13.31 2C15 2 15.12 2.75 15.27 3.66L15.5 4.96M18.85 9.13L18.2 19.2C18.08 20.78 18 22 15.21 22L8.79 22C6 22 5.91 20.78 5.79 19.2L5.14 9.13M10.33 16.5L13.66 16.5M9.5 12.5L14.5 12.5" stroke="#D92D20" stroke-opacity="1.000000" stroke-width="1.500000" stroke-linejoin="round"/>
</svg>
