<svg width="24" height="24" viewBox="0 0 24 24" fill="none" xmlns="http://www.w3.org/2000/svg">
<g id="security-safe">
<path id="Vector" d="M11.9998 12.5001C13.1044 12.5001 13.9998 11.6046 13.9998 10.5001C13.9998 9.39549 13.1044 8.50006 11.9998 8.50006C10.8953 8.50006 9.99985 9.39549 9.99985 10.5001C9.99985 11.6046 10.8953 12.5001 11.9998 12.5001ZM11.9998 12.5001V15.5001M20.9099 11.12C20.9099 16.01 17.3599 20.59 12.5099 21.93C12.1799 22.02 11.8198 22.02 11.4898 21.93C6.63984 20.59 3.08984 16.01 3.08984 11.12V6.73003C3.08984 5.91003 3.70986 4.98004 4.47986 4.67004L10.0498 2.39007C11.2998 1.88007 12.7098 1.88007 13.9598 2.39007L19.5298 4.67004C20.2898 4.98004 20.9199 5.91003 20.9199 6.73003L20.9099 11.12Z" stroke="#161616" stroke-width="1.5" stroke-miterlimit="10" stroke-linecap="round" stroke-linejoin="round"/>
</g>
</svg>
