<svg width="16" height="16" viewBox="0 0 16 16" fill="none" xmlns="http://www.w3.org/2000/svg">
<g id="setting-4">
<path id="Vector" d="M14.6667 4.33333H10.6667M4 4.33333H1.33333M14.6667 11.6667H12M5.33333 11.6667H1.33333M9 4.33333C9 5.622 7.95533 6.66667 6.66667 6.66667C5.378 6.66667 4.33333 5.622 4.33333 4.33333C4.33333 3.04467 5.378 2 6.66667 2C7.95533 2 9 3.04467 9 4.33333ZM11.6667 11.6667C11.6667 12.9553 10.622 14 9.33333 14C8.04467 14 7 12.9553 7 11.6667C7 10.378 8.04467 9.33333 9.33333 9.33333C10.622 9.33333 11.6667 10.378 11.6667 11.6667Z" stroke="white" stroke-width="1.5" stroke-miterlimit="10" stroke-linecap="round" stroke-linejoin="round"/>
</g>
</svg>
