<svg width="16" height="16" viewBox="0 0 16 16" fill="none" xmlns="http://www.w3.org/2000/svg">
<g id="setting-4">
<path id="Vector" d="M14.6663 4.33333H10.6663M3.99967 4.33333H1.33301M14.6663 11.6667H11.9997M5.33301 11.6667H1.33301M8.99967 4.33333C8.99967 5.622 7.95501 6.66667 6.66634 6.66667C5.37768 6.66667 4.33301 5.622 4.33301 4.33333C4.33301 3.04467 5.37768 2 6.66634 2C7.95501 2 8.99967 3.04467 8.99967 4.33333ZM11.6663 11.6667C11.6663 12.9553 10.6217 14 9.33301 14C8.04434 14 6.99967 12.9553 6.99967 11.6667C6.99967 10.378 8.04434 9.33333 9.33301 9.33333C10.6217 9.33333 11.6663 10.378 11.6663 11.6667Z" stroke="#161616" stroke-opacity="0.6" stroke-width="1.5" stroke-miterlimit="10" stroke-linecap="round" stroke-linejoin="round"/>
</g>
</svg>
