<svg width="28" height="28" viewBox="0 0 28 28" fill="none" xmlns="http://www.w3.org/2000/svg">
<rect x="0.5" y="0.5" width="27" height="27" rx="5.5" fill="white"/>
<rect x="0.5" y="0.5" width="27" height="27" rx="5.5" stroke="#E5E9EB"/>
<path d="M20.0466 9.48659C18.9733 9.37992 17.8999 9.29992 16.8199 9.23992V9.23325L16.6733 8.36659C16.5733 7.75325 16.4266 6.83325 14.8666 6.83325H13.1199C11.5666 6.83325 11.4199 7.71325 11.3133 8.35992L11.1733 9.21325C10.5533 9.25325 9.93328 9.29325 9.31328 9.35325L7.95328 9.48659C7.67328 9.51325 7.47328 9.75992 7.49994 10.0333C7.52661 10.3066 7.76661 10.5066 8.04661 10.4799L9.40661 10.3466C12.8999 9.99992 16.4199 10.1333 19.9533 10.4866C19.9733 10.4866 19.9866 10.4866 20.0066 10.4866C20.2599 10.4866 20.4799 10.2933 20.5066 10.0333C20.5266 9.75992 20.3266 9.51325 20.0466 9.48659Z" fill="#FF4D4D"/>
<path d="M18.8199 11.4266C18.6599 11.2599 18.4399 11.1666 18.2133 11.1666H9.7866C9.55994 11.1666 9.33327 11.2599 9.17994 11.4266C9.0266 11.5933 8.93994 11.8199 8.95327 12.0533L9.3666 18.8933C9.43994 19.9066 9.53327 21.1733 11.8599 21.1733H16.1399C18.4666 21.1733 18.5599 19.9133 18.6333 18.8933L19.0466 12.0599C19.0599 11.8199 18.9733 11.5933 18.8199 11.4266ZM15.1066 17.8333H12.8866C12.6133 17.8333 12.3866 17.6066 12.3866 17.3333C12.3866 17.0599 12.6133 16.8333 12.8866 16.8333H15.1066C15.3799 16.8333 15.6066 17.0599 15.6066 17.3333C15.6066 17.6066 15.3799 17.8333 15.1066 17.8333ZM15.6666 15.1666H12.3333C12.0599 15.1666 11.8333 14.9399 11.8333 14.6666C11.8333 14.3933 12.0599 14.1666 12.3333 14.1666H15.6666C15.9399 14.1666 16.1666 14.3933 16.1666 14.6666C16.1666 14.9399 15.9399 15.1666 15.6666 15.1666Z" fill="#FF4D4D"/>
</svg>
