<svg width="345" height="82" viewBox="0 0 345 82" fill="none" xmlns="http://www.w3.org/2000/svg">
<path opacity="0.3" d="M338.536 81.8857C339.025 82.1421 339.629 81.9534 339.886 81.4642L344.064 73.4928C344.32 73.0037 344.132 72.3993 343.642 72.1429C343.153 71.8865 342.549 72.0752 342.292 72.5644L338.578 79.6501L331.493 75.9362C331.004 75.6798 330.399 75.8685 330.143 76.3576C329.886 76.8468 330.075 77.4512 330.564 77.7076L338.536 81.8857ZM0.7751 4.2694C0.931552 4.79906 1.48776 5.1016 2.01742 4.94515C2.54708 4.7887 2.84963 4.2325 2.69317 3.70284L0.7751 4.2694ZM4.83839 9.03363C4.58285 8.54402 3.97878 8.35427 3.48918 8.60981C2.99957 8.86536 2.80982 9.46942 3.06536 9.95903L4.83839 9.03363ZM6.4658 15.1241C6.81407 15.5527 7.44388 15.6179 7.87251 15.2696C8.30114 14.9213 8.36627 14.2915 8.018 13.8629L6.4658 15.1241ZM12.0792 17.9979C11.6586 17.64 11.0275 17.6909 10.6696 18.1115C10.3117 18.5321 10.3625 19.1633 10.7832 19.5212L12.0792 17.9979ZM15.7269 23.0991C16.1968 23.3893 16.813 23.2437 17.1032 22.7738C17.3934 22.3039 17.2478 21.6877 16.7779 21.3975L15.7269 23.0991ZM21.9468 24.1575C21.4454 23.926 20.8512 24.1447 20.6196 24.6461C20.388 25.1475 20.6068 25.7416 21.1082 25.9732L21.9468 24.1575ZM26.8115 28.2723C27.3326 28.4553 27.9033 28.1811 28.0863 27.66C28.2692 27.1389 27.9951 26.5682 27.474 26.3852L26.8115 28.2723ZM33.0804 28.1176C32.5474 27.9731 31.9981 28.2882 31.8537 28.8212C31.7092 29.3543 32.0242 29.9035 32.5572 30.048L33.0804 28.1176ZM38.4339 31.4516C38.9745 31.5648 39.5044 31.2184 39.6176 30.6778C39.7308 30.1372 39.3844 29.6073 38.8438 29.4941L38.4339 31.4516ZM44.7629 30.5826C44.2176 30.4951 43.7046 30.8663 43.6172 31.4116C43.5297 31.9569 43.9009 32.4699 44.4462 32.5573L44.7629 30.5826ZM50.3434 33.3859C50.8917 33.4528 51.3903 33.0626 51.4572 32.5144C51.5241 31.9662 51.1338 31.4675 50.5856 31.4007L50.3434 33.3859ZM56.5954 32.0339C56.0453 31.9845 55.5594 32.3903 55.51 32.9404C55.4606 33.4905 55.8664 33.9764 56.4165 34.0258L56.5954 32.0339ZM62.3477 34.4792C62.8989 34.5144 63.3742 34.0962 63.4094 33.545C63.4446 32.9938 63.0264 32.5185 62.4752 32.4833L62.3477 34.4792ZM68.5036 32.7994C67.9518 32.7764 67.4858 33.2051 67.4628 33.7569C67.4398 34.3087 67.8685 34.7747 68.4203 34.7977L68.5036 32.7994ZM74.3739 34.9898C74.926 35.0028 75.3841 34.5656 75.397 34.0135C75.4099 33.4614 74.9728 33.0033 74.4207 32.9904L74.3739 34.9898ZM80.4639 33.0827C79.9116 33.0785 79.4605 33.5228 79.4563 34.0751C79.4521 34.6274 79.8963 35.0785 80.4486 35.0827L80.4639 33.0827ZM86.3988 35.088C86.9511 35.085 87.3963 34.6349 87.3933 34.0826C87.3903 33.5303 86.9402 33.0851 86.3879 33.0881L86.3988 35.088ZM92.4383 33.0199C91.8861 33.0292 91.4459 33.4843 91.4552 34.0365C91.4644 34.5887 91.9196 35.0289 92.4718 35.0196L92.4383 33.0199ZM98.4176 34.8916C98.9697 34.8772 99.4056 34.4179 99.3912 33.8658C99.3768 33.3137 98.9176 32.8778 98.3655 32.8922L98.4176 34.8916ZM104.383 32.7108C103.831 32.7295 103.399 33.1922 103.418 33.7442C103.437 34.2961 103.899 34.7284 104.451 34.7096L104.383 32.7108ZM110.43 34.4864C110.982 34.464 111.411 33.9986 111.389 33.4467C111.367 32.8949 110.901 32.4657 110.349 32.488L110.43 34.4864ZM116.339 32.2292C115.787 32.2544 115.36 32.7221 115.385 33.2738C115.411 33.8255 115.878 34.2523 116.43 34.2271L116.339 32.2292ZM122.436 33.9391C122.988 33.9115 123.413 33.4421 123.385 32.8905C123.358 32.3389 122.888 31.914 122.336 31.9416L122.436 33.9391ZM128.306 31.6336C127.754 31.6629 127.331 32.1337 127.36 32.6852C127.389 33.2367 127.86 33.6601 128.412 33.6308L128.306 31.6336ZM134.433 33.3042C134.984 33.2737 135.407 32.802 135.376 32.2505C135.346 31.6991 134.874 31.2768 134.323 31.3072L134.433 33.3042ZM140.283 30.9737C139.731 31.0048 139.31 31.4771 139.341 32.0285C139.372 32.5799 139.844 33.0016 140.396 32.9705L140.283 30.9737ZM146.392 32.6299C146.944 32.5985 147.365 32.126 147.334 31.5746C147.302 31.0232 146.83 30.6017 146.279 30.6331L146.392 32.6299ZM152.266 30.2931C151.714 30.3243 151.293 30.7965 151.324 31.3479C151.355 31.8993 151.827 32.3211 152.378 32.2899L152.266 30.2931ZM158.361 31.9553C158.913 31.9248 159.335 31.4531 159.305 30.9016C159.274 30.3502 158.803 29.9278 158.251 29.9583L158.361 31.9553ZM164.248 29.6328C163.697 29.6621 163.273 30.133 163.303 30.6845C163.332 31.236 163.803 31.6593 164.354 31.63L164.248 29.6328ZM170.338 31.32C170.889 31.2922 171.314 30.8226 171.286 30.271C171.259 29.7194 170.789 29.2947 170.237 29.3225L170.338 31.32ZM176.229 29.0318C175.677 29.0575 175.25 29.5255 175.276 30.0772C175.302 30.6289 175.77 31.0553 176.322 31.0296L176.229 29.0318ZM182.314 30.7635C182.866 30.7403 183.294 30.2741 183.271 29.7223C183.248 29.1705 182.782 28.742 182.23 28.7652L182.314 30.7635ZM188.226 28.5287C187.674 28.549 187.243 29.0128 187.263 29.5647C187.283 30.1166 187.747 30.5476 188.299 30.5274L188.226 28.5287ZM194.282 30.3264C194.834 30.3097 195.268 29.8486 195.251 29.2965C195.234 28.7445 194.773 28.3106 194.221 28.3273L194.282 30.3264ZM200.235 28.1661C199.683 28.1789 199.246 28.6368 199.258 29.1889C199.271 29.7411 199.729 30.1783 200.281 30.1656L200.235 28.1661ZM206.247 30.0519C206.799 30.0437 207.24 29.5894 207.232 29.0372C207.224 28.485 206.769 28.044 206.217 28.0522L206.247 30.0519ZM212.247 27.9904C211.695 27.9934 211.25 28.4436 211.253 28.9959C211.256 29.5481 211.706 29.9934 212.258 29.9904L212.247 27.9904ZM218.234 29.9888C218.786 29.9916 219.236 29.5462 219.239 28.9939C219.242 28.4416 218.796 27.9916 218.244 27.9888L218.234 29.9888ZM224.255 28.0544C223.703 28.045 223.248 28.4851 223.238 29.0373C223.229 29.5895 223.669 30.0447 224.221 30.0541L224.255 28.0544ZM230.213 30.1947C230.765 30.2114 231.226 29.7774 231.243 29.2254C231.259 28.6733 230.825 28.2123 230.273 28.1956L230.213 30.1947ZM236.251 28.4197C235.699 28.3949 235.232 28.822 235.207 29.3737C235.182 29.9254 235.609 30.3928 236.161 30.4177L236.251 28.4197ZM242.17 30.7376C242.721 30.7716 243.195 30.3524 243.229 29.8011C243.263 29.2499 242.844 28.7754 242.293 28.7414L242.17 30.7376ZM248.243 29.163C247.693 29.1188 247.211 29.5292 247.166 30.0797C247.122 30.6302 247.533 31.1124 248.083 31.1566L248.243 29.163ZM254.086 31.7007C254.635 31.7565 255.126 31.3562 255.181 30.8067C255.237 30.2573 254.837 29.7667 254.287 29.7109L254.086 31.7007ZM260.232 30.3826C259.684 30.3141 259.185 30.7028 259.116 31.2508C259.048 31.7988 259.436 32.2986 259.984 32.3671L260.232 30.3826ZM265.932 33.1889C266.478 33.2719 266.988 32.8965 267.071 32.3505C267.154 31.8045 266.779 31.2946 266.233 31.2116L265.932 33.1889ZM272.15 32.1985C271.607 32.0995 271.086 32.4596 270.987 33.0029C270.888 33.5463 271.248 34.067 271.791 34.1661L272.15 32.1985ZM277.662 35.3368C278.202 35.4541 278.735 35.1116 278.852 34.572C278.969 34.0323 278.627 33.4997 278.087 33.3824L277.662 35.3368ZM283.935 34.7676C283.4 34.6299 282.855 34.9519 282.717 35.4867C282.58 36.0216 282.901 36.5668 283.436 36.7045L283.935 34.7676ZM289.191 38.3172C289.719 38.478 290.278 38.1801 290.439 37.6517C290.6 37.1234 290.302 36.5647 289.773 36.4039L289.191 38.3172ZM295.479 38.2915C294.959 38.1049 294.386 38.3751 294.2 38.8949C294.013 39.4147 294.283 39.9873 294.803 40.1739L295.479 38.2915ZM300.367 42.3466C300.875 42.5623 301.462 42.325 301.678 41.8166C301.894 41.3082 301.656 40.7212 301.148 40.5055L300.367 42.3466ZM306.596 43.0201C306.103 42.7725 305.502 42.972 305.254 43.4656C305.006 43.9593 305.206 44.5602 305.7 44.8078L306.596 43.0201ZM310.936 47.674C311.41 47.9571 312.024 47.8022 312.307 47.328C312.59 46.8539 312.435 46.2399 311.961 45.9568L310.936 47.674ZM317.023 49.2603C316.573 48.9396 315.949 49.044 315.628 49.4935C315.307 49.9431 315.411 50.5676 315.861 50.8884L317.023 49.2603ZM320.515 54.5338C320.934 54.894 321.565 54.8466 321.926 54.428C322.286 54.0094 322.238 53.378 321.82 53.0178L320.515 54.5338ZM326.228 57.1994C325.847 56.8 325.214 56.7853 324.814 57.1666C324.415 57.548 324.4 58.181 324.782 58.5805L326.228 57.1994ZM328.625 63.046C328.963 63.4828 329.592 63.5629 330.028 63.2249C330.465 62.8869 330.545 62.2588 330.207 61.822L328.625 63.046ZM333.663 66.8084C333.373 66.3385 332.757 66.193 332.287 66.4834C331.817 66.7737 331.671 67.3899 331.962 67.8597L333.663 66.8084ZM334.794 73.0307C335.034 73.5281 335.632 73.7369 336.129 73.497C336.627 73.2571 336.836 72.6594 336.596 72.1619L334.794 73.0307ZM338.955 77.7507C338.766 77.232 338.191 76.9653 337.673 77.155C337.154 77.3447 336.887 77.919 337.077 78.4377L338.955 77.7507ZM0.0191932 1.19498C0.228741 2.24907 0.480982 3.27366 0.7751 4.2694L2.69317 3.70284C2.41666 2.76671 2.17882 1.80109 1.98081 0.80502L0.0191932 1.19498ZM3.06536 9.95903C4.02848 11.8043 5.16542 13.5237 6.4658 15.1241L8.018 13.8629C6.80056 12.3646 5.73809 10.7574 4.83839 9.03363L3.06536 9.95903ZM10.7832 19.5212C12.3008 20.8124 13.9519 22.0027 15.7269 23.0991L16.7779 21.3975C15.0816 20.3498 13.5135 19.2183 12.0792 17.9979L10.7832 19.5212ZM21.1082 25.9732C22.9164 26.8084 24.8196 27.573 26.8115 28.2723L27.474 26.3852C25.5361 25.7049 23.6921 24.9636 21.9468 24.1575L21.1082 25.9732ZM32.5572 30.048C34.4521 30.5616 36.4124 31.0283 38.4339 31.4516L38.8438 29.4941C36.8569 29.078 34.9346 28.6202 33.0804 28.1176L32.5572 30.048ZM44.4462 32.5573C46.366 32.8652 48.3327 33.1407 50.3434 33.3859L50.5856 31.4007C48.5978 31.1582 46.656 30.8862 44.7629 30.5826L44.4462 32.5573ZM56.4165 34.0258C58.3586 34.2003 60.3364 34.3508 62.3477 34.4792L62.4752 32.4833C60.4798 32.3559 58.5192 32.2066 56.5954 32.0339L56.4165 34.0258ZM68.4203 34.7977C70.3775 34.8792 72.3626 34.9428 74.3739 34.9898L74.4207 32.9904C72.4207 32.9436 70.4477 32.8804 68.5036 32.7994L68.4203 34.7977ZM80.4486 35.0827C82.4105 35.0976 84.3944 35.099 86.3988 35.088L86.3879 33.0881C84.3916 33.099 82.4164 33.0976 80.4639 33.0827L80.4486 35.0827ZM92.4718 35.0196C94.4367 34.9867 96.4191 34.9437 98.4176 34.8916L98.3655 32.8922C96.3727 32.9442 94.3965 32.9871 92.4383 33.0199L92.4718 35.0196ZM104.451 34.7096C106.431 34.6424 108.424 34.5676 110.43 34.4864L110.349 32.488C108.347 32.5691 106.358 32.6437 104.383 32.7108L104.451 34.7096ZM116.43 34.2271C118.422 34.1359 120.424 34.0396 122.436 33.9391L122.336 31.9416C120.327 32.042 118.327 32.1381 116.339 32.2292L116.43 34.2271ZM128.412 33.6308C130.411 33.5247 132.418 33.4155 134.433 33.3042L134.323 31.3072C132.309 31.4185 130.303 31.5276 128.306 31.6336L128.412 33.6308ZM140.396 32.9705C142.389 32.8578 144.389 32.7439 146.392 32.6299L146.279 30.6331C144.275 30.7472 142.276 30.861 140.283 30.9737L140.396 32.9705ZM152.378 32.2899C154.37 32.1774 156.364 32.0656 158.361 31.9553L158.251 29.9583C156.253 30.0687 154.258 30.1806 152.266 30.2931L152.378 32.2899ZM164.354 31.63C166.348 31.5239 168.343 31.4203 170.338 31.32L170.237 29.3225C168.24 29.4229 166.243 29.5267 164.248 29.6328L164.354 31.63ZM176.322 31.0296C178.32 30.9364 180.318 30.8474 182.314 30.7635L182.23 28.7652C180.231 28.8493 178.23 28.9385 176.229 29.0318L176.322 31.0296ZM188.299 30.5274C190.297 30.4541 192.292 30.3869 194.282 30.3264L194.221 28.3273C192.226 28.3879 190.228 28.4553 188.226 28.5287L188.299 30.5274ZM200.281 30.1656C202.276 30.1195 204.265 30.0814 206.247 30.0519L206.217 28.0522C204.229 28.0817 202.235 28.12 200.235 28.1661L200.281 30.1656ZM212.258 29.9904C214.259 29.9795 216.251 29.9787 218.234 29.9888L218.244 27.9888C216.254 27.9787 214.254 27.9795 212.247 27.9904L212.258 29.9904ZM224.221 30.0541C226.23 30.0881 228.228 30.1347 230.213 30.1947L230.273 28.1956C228.279 28.1353 226.272 28.0886 224.255 28.0544L224.221 30.0541ZM236.161 30.4177C238.179 30.5085 240.182 30.6148 242.17 30.7376L242.293 28.7414C240.294 28.6179 238.279 28.511 236.251 28.4197L236.161 30.4177ZM248.083 31.1566C250.103 31.3187 252.104 31.4997 254.086 31.7007L254.287 29.7109C252.292 29.5084 250.276 29.3262 248.243 29.163L248.083 31.1566ZM259.984 32.3671C261.991 32.6179 263.974 32.8914 265.932 33.1889L266.233 31.2116C264.256 30.9113 262.255 30.6354 260.232 30.3826L259.984 32.3671ZM271.791 34.1661C273.778 34.5282 275.736 34.918 277.662 35.3368L278.087 33.3824C276.137 32.9586 274.158 32.5645 272.15 32.1985L271.791 34.1661ZM283.436 36.7045C285.392 37.2078 287.31 37.7448 289.191 38.3172L289.773 36.4039C287.864 35.8226 285.917 35.2778 283.935 34.7676L283.436 36.7045ZM294.803 40.1739C296.704 40.8562 298.559 41.5797 300.367 42.3466L301.148 40.5055C299.304 39.7231 297.413 38.9858 295.479 38.2915L294.803 40.1739ZM305.7 44.8078C307.503 45.712 309.249 46.6666 310.936 47.674L311.961 45.9568C310.23 44.9231 308.441 43.9451 306.596 43.0201L305.7 44.8078ZM315.861 50.8884C317.48 52.0437 319.033 53.2579 320.515 54.5338L321.82 53.0178C320.289 51.7009 318.689 50.4494 317.023 49.2603L315.861 50.8884ZM324.782 58.5805C326.138 60.0017 327.421 61.4893 328.625 63.046L330.207 61.822C328.959 60.2095 327.632 58.6696 326.228 57.1994L324.782 58.5805ZM331.962 67.8597C332.984 69.5132 333.929 71.236 334.794 73.0307L336.596 72.1619C335.7 70.3049 334.722 68.5212 333.663 66.8084L331.962 67.8597ZM337.077 78.4377C337.419 79.3734 337.742 80.3268 338.045 81.298L339.955 80.702C339.642 79.7005 339.309 78.7168 338.955 77.7507L337.077 78.4377Z" fill="#161616"/>
</svg>
