<svg width="333" height="164" viewBox="0 0 333 164" fill="none" xmlns="http://www.w3.org/2000/svg">
<path opacity="0.3" d="M326.52 163.877C327.004 164.142 327.612 163.965 327.877 163.48L332.2 155.587C332.465 155.102 332.288 154.494 331.803 154.229C331.319 153.964 330.711 154.142 330.446 154.626L326.603 161.643L319.587 157.8C319.102 157.535 318.494 157.712 318.229 158.197C317.964 158.681 318.142 159.289 318.626 159.554L326.52 163.877ZM4.07777 7.68672C4.6212 7.58823 4.98191 7.06785 4.88342 6.52442C4.78494 5.98099 4.26456 5.62029 3.72113 5.71877L4.07777 7.68672ZM9.72534 4.69221C9.18008 4.78 8.80923 5.2932 8.89702 5.83846C8.98482 6.38372 9.49801 6.75457 10.0433 6.66677L9.72534 4.69221ZM15.9326 5.77347C16.4794 5.69553 16.8594 5.18911 16.7815 4.64235C16.7036 4.09559 16.1971 3.71555 15.6504 3.79349L15.9326 5.77347ZM21.637 2.99297C21.0889 3.0615 20.7002 3.5613 20.7688 4.10932C20.8373 4.65734 21.3371 5.04604 21.8851 4.97752L21.637 2.99297ZM27.8845 4.27806C28.4336 4.21862 28.8305 3.72532 28.7711 3.17624C28.7116 2.62717 28.2183 2.23024 27.6693 2.28968L27.8845 4.27806ZM33.6357 1.69162C33.0858 1.74238 32.6811 2.22936 32.7319 2.7793C32.7827 3.32925 33.2696 3.73392 33.8196 3.68315L33.6357 1.69162ZM39.8322 3.17542C40.3829 3.1332 40.7951 2.65258 40.7529 2.10191C40.7107 1.55124 40.23 1.13905 39.6794 1.18127L39.8322 3.17542ZM45.6816 0.766895C45.1303 0.800781 44.7109 1.27512 44.7448 1.82637C44.7787 2.37761 45.253 2.79701 45.8043 2.76313L45.6816 0.766895ZM51.8063 2.43927C52.358 2.41362 52.7845 1.9456 52.7588 1.39391C52.7332 0.842224 52.2652 0.415779 51.7135 0.441423L51.8063 2.43927ZM57.7508 0.205619C57.1988 0.223094 56.7655 0.684751 56.783 1.23676C56.8004 1.78877 57.2621 2.22209 57.8141 2.20462L57.7508 0.205619ZM63.8076 2.05893C64.3598 2.04956 64.7998 1.59431 64.7905 1.0421C64.7811 0.489897 64.3259 0.0498437 63.7736 0.0592154L63.8076 2.05893ZM69.8283 0.00103921C69.276 0.00228035 68.8293 0.451001 68.8305 1.00328C68.8317 1.55557 69.2805 2.00228 69.8327 2.00103L69.8283 0.00103921ZM75.8191 2.0314C76.3713 2.03825 76.8245 1.59612 76.8314 1.04388C76.8382 0.491638 76.3961 0.0384055 75.8438 0.031557L75.8191 2.0314ZM81.9026 0.15156C81.3505 0.136528 80.8908 0.571891 80.8758 1.12397C80.8607 1.67605 81.2961 2.13579 81.8482 2.15082L81.9026 0.15156ZM87.8272 2.35787C88.379 2.38107 88.8452 1.95256 88.8684 1.40077C88.8916 0.848971 88.4631 0.382839 87.9113 0.359634L87.8272 2.35787ZM93.9641 0.659795C93.4127 0.628279 92.9402 1.04972 92.9087 1.6011C92.8772 2.15249 93.2986 2.62502 93.85 2.65654L93.9641 0.659795ZM99.82 3.04299C100.371 3.08284 100.85 2.6686 100.89 2.11775C100.929 1.56691 100.515 1.08805 99.9643 1.0482L99.82 3.04299ZM106.003 1.53185C105.453 1.4835 104.968 1.8903 104.919 2.44046C104.871 2.99063 105.278 3.47582 105.828 3.52417L106.003 1.53185ZM111.785 4.09441C112.335 4.15132 112.826 3.75212 112.883 3.20278C112.94 2.65343 112.541 2.16197 111.991 2.10505L111.785 4.09441ZM118.008 2.77679C117.46 2.71113 116.962 3.10244 116.897 3.65081C116.831 4.19918 117.222 4.69695 117.771 4.76261L118.008 2.77679ZM123.71 5.5223C124.257 5.5968 124.761 5.21357 124.836 4.66634C124.91 4.1191 124.527 3.61508 123.98 3.54058L123.71 5.5223ZM129.968 4.40619C129.422 4.32264 128.912 4.69748 128.829 5.24341C128.745 5.78934 129.12 6.29963 129.666 6.38317L129.968 4.40619ZM135.58 7.33906C136.125 7.43177 136.641 7.06557 136.734 6.52112C136.827 5.97668 136.461 5.46016 135.916 5.36744L135.58 7.33906ZM141.869 6.43378C141.326 6.33169 140.803 6.68893 140.701 7.2317C140.599 7.77447 140.956 8.29723 141.499 8.39932L141.869 6.43378ZM147.38 9.55898C147.921 9.67061 148.45 9.32262 148.562 8.78173C148.673 8.24085 148.325 7.71188 147.784 7.60026L147.38 9.55898ZM153.693 8.87514C153.154 8.75377 152.619 9.09214 152.498 9.63092C152.376 10.1697 152.715 10.7049 153.253 10.8262L153.693 8.87514ZM159.091 12.1979C159.628 12.3292 160.169 12.0008 160.3 11.4644C160.432 10.9279 160.103 10.3866 159.567 10.2553L159.091 12.1979ZM165.422 11.7473C164.889 11.6059 164.341 11.924 164.2 12.4578C164.058 12.9917 164.376 13.5391 164.91 13.6806L165.422 11.7473ZM170.693 15.273C171.224 15.4249 171.778 15.1175 171.93 14.5865C172.081 14.0554 171.774 13.5019 171.243 13.3501L170.693 15.273ZM177.035 15.0685C176.507 14.9061 175.948 15.2024 175.785 15.7303C175.623 16.2581 175.919 16.8177 176.447 16.9801L177.035 15.0685ZM182.162 18.8023C182.687 18.9755 183.252 18.6908 183.425 18.1663C183.599 17.6419 183.314 17.0764 182.789 16.9032L182.162 18.8023ZM188.506 18.8575C187.985 18.6733 187.414 18.9461 187.23 19.4668C187.046 19.9874 187.318 20.5588 187.839 20.743L188.506 18.8575ZM193.472 22.8042C193.989 22.9995 194.566 22.7392 194.762 22.2226C194.957 21.706 194.697 21.1289 194.18 20.9335L193.472 22.8042ZM199.807 23.1331C199.295 22.9263 198.712 23.1738 198.505 23.6859C198.298 24.198 198.546 24.7808 199.058 24.9876L199.807 23.1331ZM204.594 27.2967C205.101 27.5151 205.689 27.281 205.908 26.7737C206.126 26.2664 205.892 25.6782 205.385 25.4597L204.594 27.2967ZM210.906 27.9137C210.404 27.6834 209.81 27.9038 209.58 28.4058C209.35 28.9078 209.57 29.5014 210.072 29.7316L210.906 27.9137ZM215.493 32.297C215.99 32.5392 216.588 32.3333 216.831 31.8369C217.073 31.3406 216.867 30.7419 216.371 30.4996L215.493 32.297ZM221.767 33.2158C221.277 32.9615 220.673 33.1527 220.419 33.6429C220.165 34.1331 220.356 34.7367 220.846 34.9911L221.767 33.2158ZM226.135 37.8205C226.619 38.0872 227.227 37.9113 227.493 37.4277C227.76 36.944 227.584 36.3358 227.101 36.0691L226.135 37.8205ZM232.352 39.0538C231.876 38.7747 231.263 38.9348 230.984 39.4114C230.705 39.888 230.865 40.5005 231.342 40.7796L232.352 39.0538ZM236.479 43.8794C236.948 44.171 237.564 44.0272 237.856 43.5581C238.148 43.0891 238.004 42.4725 237.535 42.1809L236.479 43.8794ZM242.62 45.4378C242.159 45.1337 241.538 45.2608 241.234 45.7218C240.93 46.1828 241.057 46.8031 241.518 47.1072L242.62 45.4378ZM246.479 50.4792C246.932 50.796 247.555 50.686 247.872 50.2336C248.189 49.7811 248.079 49.1576 247.626 48.8408L246.479 50.4792ZM252.525 52.3736C252.081 52.0442 251.455 52.1367 251.126 52.58C250.796 53.0234 250.889 53.6498 251.332 53.9791L252.525 52.3736ZM256.095 57.6231C256.528 57.965 257.157 57.8905 257.499 57.4567C257.841 57.023 257.766 56.3942 257.333 56.0523L256.095 57.6231ZM262.023 59.8605C261.599 59.5062 260.969 59.5624 260.614 59.9861C260.26 60.4097 260.316 61.0404 260.74 61.3947L262.023 59.8605ZM265.28 65.3064C265.693 65.673 266.325 65.6354 266.692 65.2224C267.058 64.8093 267.021 64.1773 266.608 63.8107L265.28 65.3064ZM271.07 67.8913C270.668 67.5126 270.035 67.5314 269.656 67.9333C269.277 68.3353 269.296 68.9682 269.698 69.3469L271.07 67.8913ZM273.993 73.5174C274.384 73.908 275.017 73.9082 275.407 73.5178C275.798 73.1274 275.798 72.4943 275.408 72.1036L273.993 73.5174ZM279.623 76.4515C279.245 76.0492 278.612 76.0298 278.21 76.4082C277.808 76.7866 277.788 77.4195 278.167 77.8218L279.623 76.4515ZM282.195 82.2368C282.561 82.6504 283.193 82.689 283.606 82.323C284.02 81.957 284.059 81.325 283.693 80.9114L282.195 82.2368ZM287.647 85.5197C287.293 85.0951 286.663 85.0372 286.238 85.3904C285.814 85.7436 285.756 86.3741 286.109 86.7987L287.647 85.5197ZM289.851 91.4391C290.191 91.8743 290.82 91.9513 291.255 91.6111C291.69 91.271 291.767 90.6425 291.427 90.2074L289.851 91.4391ZM295.094 95.0492C294.767 94.6039 294.141 94.5077 293.696 94.8344C293.251 95.1611 293.155 95.7869 293.481 96.2322L295.094 95.0492ZM296.936 101.093C297.249 101.548 297.872 101.663 298.327 101.35C298.781 101.037 298.896 100.414 298.583 99.9594L296.936 101.093ZM301.943 105.002C301.643 104.538 301.025 104.404 300.56 104.703C300.096 105.002 299.963 105.621 300.262 106.085L301.943 105.002ZM303.431 111.165C303.716 111.638 304.331 111.79 304.804 111.505C305.277 111.219 305.429 110.605 305.143 110.132L303.431 111.165ZM308.185 115.344C307.914 114.863 307.304 114.693 306.823 114.965C306.342 115.236 306.172 115.846 306.443 116.327L308.185 115.344ZM309.327 121.62C309.584 122.108 310.189 122.296 310.678 122.039C311.167 121.782 311.354 121.177 311.097 120.688L309.327 121.62ZM313.816 126.038C313.573 125.542 312.974 125.338 312.478 125.581C311.982 125.824 311.777 126.423 312.02 126.919L313.816 126.038ZM314.596 132.362C314.825 132.865 315.418 133.086 315.921 132.857C316.423 132.628 316.645 132.035 316.415 131.532L314.596 132.362ZM318.84 137.047C318.624 136.539 318.037 136.301 317.529 136.516C317.02 136.731 316.783 137.318 316.998 137.827L318.84 137.047ZM319.257 143.368C319.458 143.882 320.038 144.136 320.553 143.934C321.067 143.732 321.32 143.152 321.119 142.638L319.257 143.368ZM323.267 148.34C323.08 147.821 322.506 147.552 321.987 147.74C321.468 147.928 321.199 148.501 321.387 149.021L323.267 148.34ZM323.335 154.626C323.509 155.15 324.076 155.433 324.6 155.258C325.124 155.083 325.407 154.517 325.232 153.993L323.335 154.626ZM327.08 159.778C326.919 159.249 326.36 158.952 325.831 159.114C325.303 159.275 325.006 159.834 325.168 160.362L327.08 159.778ZM1.18829 8.22541C2.13982 8.04298 3.10308 7.86336 4.07777 7.68672L3.72113 5.71877C2.73985 5.8966 1.76994 6.07746 0.811706 6.26118L1.18829 8.22541ZM10.0433 6.66677C11.9685 6.35679 13.9323 6.05865 15.9326 5.77347L15.6504 3.79349C13.6383 4.08034 11.6626 4.38029 9.72534 4.69221L10.0433 6.66677ZM21.8851 4.97752C23.8542 4.73129 25.8546 4.49782 27.8845 4.27806L27.6693 2.28968C25.6285 2.51062 23.6171 2.74537 21.637 2.99297L21.8851 4.97752ZM33.8196 3.68315C35.7992 3.50041 37.804 3.33089 39.8322 3.17542L39.6794 1.18127C37.6408 1.33753 35.6257 1.50792 33.6357 1.69162L33.8196 3.68315ZM45.8043 2.76313C47.7853 2.64135 49.7864 2.53316 51.8063 2.43927L51.7135 0.441423C49.6835 0.535778 47.6725 0.644511 45.6816 0.766895L45.8043 2.76313ZM57.8141 2.20462C59.796 2.14188 61.7942 2.0931 63.8076 2.05893L63.7736 0.0592154C61.7505 0.0935513 59.7425 0.14257 57.7508 0.205619L57.8141 2.20462ZM69.8327 2.00103C71.8154 1.99658 73.8112 2.0065 75.8191 2.0314L75.8438 0.031557C73.8262 0.00653493 71.8206 -0.00343823 69.8283 0.00103921L69.8327 2.00103ZM81.8482 2.15082C83.8311 2.20481 85.8244 2.27364 87.8272 2.35787L87.9113 0.359634C85.8985 0.274989 83.8953 0.205816 81.9026 0.15156L81.8482 2.15082ZM93.85 2.65654C95.8322 2.76984 97.8225 2.89848 99.82 3.04299L99.9643 1.0482C97.9567 0.902957 95.9563 0.773664 93.9641 0.659795L93.85 2.65654ZM105.828 3.52417C107.808 3.6982 109.794 3.88811 111.785 4.09441L111.991 2.10505C109.99 1.89767 107.993 1.70677 106.003 1.53185L105.828 3.52417ZM117.771 4.76261C119.747 4.99921 121.727 5.25228 123.71 5.5223L123.98 3.54058C121.986 3.26909 119.995 3.01466 118.008 2.77679L117.771 4.76261ZM129.666 6.38317C131.635 6.68456 133.607 7.00304 135.58 7.33906L135.916 5.36744C133.932 5.02951 131.949 4.70925 129.968 4.40619L129.666 6.38317ZM141.499 8.39932C143.459 8.76798 145.42 9.15439 147.38 9.55898L147.784 7.60026C145.812 7.19326 143.84 6.80459 141.869 6.43378L141.499 8.39932ZM153.253 10.8262C155.201 11.2649 157.147 11.722 159.091 12.1979L159.567 10.2553C157.61 9.77638 155.652 9.31648 153.693 8.87514L153.253 10.8262ZM164.91 13.6806C166.841 14.1922 168.769 14.7228 170.693 15.273L171.243 13.3501C169.306 12.7963 167.365 12.2622 165.422 11.7473L164.91 13.6806ZM176.447 16.9801C178.357 17.5675 180.262 18.1748 182.162 18.8023L182.789 16.9032C180.876 16.2713 178.957 15.6599 177.035 15.0685L176.447 16.9801ZM187.839 20.743C189.723 21.4093 191.601 22.0963 193.472 22.8042L194.18 20.9335C192.295 20.2204 190.403 19.5286 188.506 18.8575L187.839 20.743ZM199.058 24.9876C200.911 25.7359 202.756 26.5054 204.594 27.2967L205.385 25.4597C203.533 24.6624 201.673 23.887 199.807 23.1331L199.058 24.9876ZM210.072 29.7316C211.888 30.5646 213.695 31.4196 215.493 32.297L216.371 30.4996C214.558 29.6151 212.736 28.7532 210.906 27.9137L210.072 29.7316ZM220.846 34.9911C222.619 35.9113 224.383 36.8543 226.135 37.8205L227.101 36.0691C225.333 35.0947 223.555 34.1438 221.767 33.2158L220.846 34.9911ZM231.342 40.7796C233.066 41.7893 234.779 42.8224 236.479 43.8794L237.535 42.1809C235.819 41.1145 234.092 40.0722 232.352 39.0538L231.342 40.7796ZM241.518 47.1072C243.185 48.207 244.839 49.3309 246.479 50.4792L247.626 48.8408C245.971 47.6819 244.302 46.5476 242.62 45.4378L241.518 47.1072ZM251.332 53.9791C252.934 55.1691 254.522 56.3836 256.095 57.6231L257.333 56.0523C255.745 54.8009 254.142 53.5748 252.525 52.3736L251.332 53.9791ZM260.74 61.3947C262.269 62.6735 263.783 63.9773 265.28 65.3064L266.608 63.8107C265.096 62.4684 263.567 61.1518 262.023 59.8605L260.74 61.3947ZM269.698 69.3469C271.147 70.7118 272.579 72.1018 273.993 73.5174L275.408 72.1036C273.979 70.6738 272.533 69.2698 271.07 67.8913L269.698 69.3469ZM278.167 77.8218C279.527 79.2681 280.87 80.7397 282.195 82.2368L283.693 80.9114C282.354 79.399 280.998 77.9125 279.623 76.4515L278.167 77.8218ZM286.109 86.7987C287.375 88.3203 288.622 89.867 289.851 91.4391L291.427 90.2074C290.185 88.6193 288.925 87.0568 287.647 85.5197L286.109 86.7987ZM293.481 96.2322C294.652 97.8276 295.803 99.4478 296.936 101.093L298.583 99.9594C297.439 98.2973 296.276 96.6607 295.094 95.0492L293.481 96.2322ZM300.262 106.085C301.338 107.754 302.394 109.447 303.431 111.165L305.143 110.132C304.096 108.397 303.029 106.687 301.943 105.002L300.262 106.085ZM306.443 116.327C307.424 118.067 308.386 119.831 309.327 121.62L311.097 120.688C310.147 118.882 309.176 117.101 308.185 115.344L306.443 116.327ZM312.02 126.919C312.899 128.709 313.757 130.524 314.596 132.362L316.415 131.532C315.569 129.677 314.703 127.846 313.816 126.038L312.02 126.919ZM316.998 137.827C317.77 139.651 318.523 141.498 319.257 143.368L321.119 142.638C320.379 140.751 319.619 138.888 318.84 137.047L316.998 137.827ZM321.387 149.021C322.055 150.867 322.704 152.736 323.335 154.626L325.232 153.993C324.596 152.087 323.941 150.203 323.267 148.34L321.387 149.021ZM325.168 160.362C325.463 161.33 325.754 162.302 326.04 163.281L327.96 162.719C327.672 161.733 327.378 160.753 327.08 159.778L325.168 160.362Z" fill="#161616"/>
</svg>
