<svg width="20" height="20" viewBox="0 0 20 20" fill="none" xmlns="http://www.w3.org/2000/svg">
<g id="wallet-line">
<path id="Vector" d="M6.0758 17.3534L1.66664 18.3334L2.64664 13.9242C2.00125 12.7171 1.66457 11.369 1.66664 10.0001C1.66664 5.39758 5.39747 1.66675 9.99997 1.66675C14.6025 1.66675 18.3333 5.39758 18.3333 10.0001C18.3333 14.6026 14.6025 18.3334 9.99997 18.3334C8.6311 18.3355 7.28298 17.9988 6.0758 17.3534ZM6.31747 15.5926L6.86164 15.8842C7.82709 16.4002 8.9053 16.669 9.99997 16.6667C11.3185 16.6667 12.6074 16.2758 13.7038 15.5432C14.8001 14.8107 15.6546 13.7695 16.1592 12.5513C16.6638 11.3331 16.7958 9.99269 16.5385 8.69948C16.2813 7.40627 15.6464 6.21839 14.714 5.28604C13.7817 4.35369 12.5938 3.71875 11.3006 3.46151C10.0074 3.20428 8.66692 3.3363 7.44875 3.84088C6.23057 4.34547 5.18938 5.19995 4.45684 6.29628C3.7243 7.39261 3.3333 8.68154 3.3333 10.0001C3.3333 11.1117 3.60414 12.1817 4.11664 13.1384L4.40747 13.6826L3.86164 16.1384L6.31747 15.5926Z" fill="#0F1324" fill-opacity="0.6"/>
</g>
</svg>
