<svg width="20" height="20" viewBox="0 0 20 20" fill="none" xmlns="http://www.w3.org/2000/svg">
<g id="wallet-line">
<path id="Vector" d="M4.16671 7.5C4.38772 7.5 4.59968 7.5878 4.75596 7.74408C4.91224 7.90036 5.00004 8.11232 5.00004 8.33334C6.30933 8.33141 7.58086 8.77189 8.60837 9.58334H10.4167C11.5267 9.58334 12.525 10.0658 13.2109 10.8325L15.8334 10.8333C16.6211 10.8331 17.3927 11.0562 18.0588 11.4767C18.7249 11.8972 19.2581 12.4979 19.5967 13.2092C17.6259 15.81 14.435 17.5 10.8334 17.5C8.50837 17.5 6.54171 16.9975 4.95004 16.1183C4.89174 16.2792 4.78524 16.4182 4.64505 16.5163C4.50487 16.6145 4.33783 16.667 4.16671 16.6667H1.66671C1.44569 16.6667 1.23373 16.5789 1.07745 16.4226C0.921171 16.2663 0.833374 16.0544 0.833374 15.8333V8.33334C0.833374 8.11232 0.921171 7.90036 1.07745 7.74408C1.23373 7.5878 1.44569 7.5 1.66671 7.5H4.16671ZM5.00087 10L5.00004 14.1842L5.03754 14.2117C6.53337 15.2617 8.48171 15.8333 10.8334 15.8333C13.3367 15.8333 15.6659 14.87 17.3625 13.225L17.4734 13.1142L17.3734 13.0308C16.9799 12.7226 16.5029 12.5397 16.0042 12.5058L15.8334 12.5L14.0734 12.4992C14.1342 12.7675 14.1667 13.0467 14.1667 13.3333V14.1667H6.66671V12.5L12.325 12.4992L12.2967 12.4342C12.137 12.1005 11.8913 11.8153 11.585 11.6079C11.2786 11.4005 10.9225 11.2784 10.5534 11.2542L10.4167 11.25H7.97504C7.5878 10.8539 7.12527 10.5393 6.61464 10.3247C6.10402 10.11 5.55562 9.9996 5.00171 10H5.00087ZM3.33337 9.16667H2.50004V15H3.33337V9.16667ZM11.3717 2.97917L11.6667 3.275L11.9617 2.98C12.1549 2.78519 12.3846 2.63044 12.6378 2.52465C12.8909 2.41887 13.1625 2.36412 13.4368 2.36356C13.7112 2.363 13.9829 2.41663 14.2365 2.52138C14.4901 2.62613 14.7205 2.77993 14.9144 2.97396C15.1084 3.16798 15.2621 3.39841 15.3668 3.65201C15.4715 3.90561 15.525 4.17739 15.5244 4.45174C15.5238 4.7261 15.4689 4.99762 15.3631 5.25073C15.2572 5.50384 15.1024 5.73355 14.9075 5.92667L11.6667 9.16667L8.42504 5.925C8.23022 5.73183 8.07548 5.50208 7.96969 5.24894C7.86391 4.9958 7.80916 4.72426 7.8086 4.4499C7.80804 4.17555 7.86167 3.90379 7.96642 3.65022C8.07117 3.39664 8.22497 3.16626 8.419 2.97229C8.61302 2.77832 8.84345 2.62458 9.09705 2.51991C9.35065 2.41523 9.62243 2.36167 9.89678 2.36231C10.1711 2.36295 10.4427 2.41777 10.6958 2.52363C10.9489 2.62949 11.1786 2.7843 11.3717 2.97917ZM9.60504 4.15834C9.53597 4.22702 9.49315 4.31773 9.48402 4.41471C9.47488 4.51169 9.50001 4.6088 9.55504 4.68917L9.60337 4.74667L11.6667 6.80834L13.73 4.74667C13.7991 4.67773 13.8417 4.58675 13.8505 4.48959C13.8594 4.39244 13.8338 4.29526 13.7784 4.215L13.73 4.15667C13.661 4.08777 13.57 4.04529 13.4728 4.03661C13.3757 4.02793 13.2785 4.05361 13.1984 4.10917L13.14 4.1575L11.6659 5.63084L10.1934 4.15584L10.1367 4.10917C10.0564 4.05371 9.95927 4.02817 9.86212 4.037C9.76496 4.04584 9.67398 4.08848 9.60504 4.1575V4.15834Z" fill="#0F1324" fill-opacity="0.6"/>
</g>
</svg>
